# xmcd
#
# Track frame offsets:
#	150
#	12449
#	22092
#	38347
#	53584
#	64216
#	75648
#	85255
#	104819
#	116973
#	125115
#	154577
#	166473
#	183509
#	194738
#	210937
#	223609
#	235799
#	245546
#	259020
#	272726
#	283163
#	295622
#
# Disc length: 4225
#
# Revision: 1
# Processed by: cddbd v1.5.1PL0 Copyright (c) Steve Scherf et al.
# Submitted via: ExactAudioCopy v0.95a5
# Normalized: r0:DSWAP,TDELIM( - )
#
DISCID=55107f17
DTITLE=Various Artist - Oldies Mix 2
DYEAR=2000
DGENRE=A Cappella
TTITLE0=The Loving Spoonful - Summer In The City
TTITLE1=Buddy Holly - Oh Boy
TTITLE2=Mamas And Papas - It Never Rains In California
TTITLE3=The Buggies - Video Killed The Radio Star
TTITLE4=The Loving Spoonful - Day Dream
TTITLE5=Buddy Holly - Peggy Sue
TTITLE6=The Zombies - Road Runner
TTITLE7=Ralph McTell - Streets Of London
TTITLE8=Jefferson Airplane - Plastic Fantastic Lover
TTITLE9=Buddy Holly - Rave On
TTITLE10=The Eagles - Hotel California
TTITLE11=The Monkees - Take A Giant Step
TTITLE12=Buffalo Springfield - Expecting To Fly
TTITLE13=The Loving Spoonful - Lovin´ You
TTITLE14=The Zombies - I Got My Mojo Working
TTITLE15=The Monkees - Last Train To Clarkville
TTITLE16=Mamas And Papas - California Dreamin´
TTITLE17=Buddy Holly - It´S So Easy
TTITLE18=The Four Tops - Reach Out I´Ll Be There
TTITLE19=Jefferson Airplane - Somebody To Love
TTITLE20=The Monkees - Theme From The Monkees
TTITLE21=The Temptations - My Girl
TTITLE22=Lynyrd Skynyrd - Sweet Home Alabama
EXTD=
EXTT0=
EXTT1=
EXTT2=
EXTT3=
EXTT4=
EXTT5=
EXTT6=
EXTT7=
EXTT8=
EXTT9=
EXTT10=
EXTT11=
EXTT12=
EXTT13=
EXTT14=
EXTT15=
EXTT16=
EXTT17=
EXTT18=
EXTT19=
EXTT20=
EXTT21=
EXTT22=
PLAYORDER=
